<?xml version="1.0" encoding="utf-8"?>
<!-- Generator: Adobe Illustrator 23.0.1, SVG Export Plug-In . SVG Version: 6.00 Build 0)  -->
<svg version="1.1" id="Layer_1" xmlns="http://www.w3.org/2000/svg" xmlns:xlink="http://www.w3.org/1999/xlink" x="0px" y="0px"
	 viewBox="0 0 100 100" style="enable-background:new 0 0 100 100;" xml:space="preserve">
<style type="text/css">
	.st0{fill:#FFFFFF;}
</style>
<g>
	<path d="M79.8,1.3H20.2c-3.8,0-6.9,3.1-6.9,6.9v59.5c0,3.8,3.1,6.9,6.9,6.9l0,0h59.5c3.8,0,6.9-3.1,6.9-6.9l0,0V8.2
		C86.6,4.4,83.6,1.3,79.8,1.3z M29.4,70.1h-9.2c-1.3,0-2.3-1-2.3-2.3V8.2c0-1.3,1-2.3,2.3-2.3h4.6v34.4c0,1.3,1,2.3,2.3,2.3h2.3
		V70.1z M47.7,70.1H34V42.6h2.3c1.3,0,2.3-1,2.3-2.3V5.9h4.6v34.4c0,1.3,1,2.3,2.3,2.3h2.3V70.1z M66,70.1H52.3V42.6h2.3
		c1.3,0,2.3-1,2.3-2.3V5.9h4.6v34.4c0,1.3,1,2.3,2.3,2.3H66V70.1z M82.1,67.8c0,1.3-1,2.3-2.3,2.3h-9.2V42.6h2.3
		c1.3,0,2.3-1,2.3-2.3V5.9h4.6c1.3,0,2.3,1,2.3,2.3V67.8z"/>
</g>
<g>
	<path d="M76.3,72.6c0-5-2.2-7.4-7.2-7.6c-2-3.5-3.1-3.9-8.8-2.8c-1.8-2.7-4.2-4-7.7-3.1c0-1.9,0-3.8,0-5.6
		c-0.2-0.5-0.3-0.9-0.3-1.4c0-2.6-0.2-5.2-0.2-7.8c0,0,0,0,0,0c-0.2-0.2-0.4-0.3-0.6-0.5c0,0,0.1,0.1,0.1,0.1
		c-0.2-0.2-0.4-0.4-0.6-0.7c-0.1,0-0.1-0.1-0.2-0.1c0,0,0,0-0.1-0.1c0,0,0,0,0,0c-0.1-0.1-0.2-0.2-0.3-0.3c0,0,0,0,0,0
		c-2.8-1.9-5.5-1.8-8.3,0c0-0.1,0.1-0.1,0.1-0.2c0,0-0.1,0.1-0.1,0.1c-0.1,0.1-0.2,0.2-0.3,0.3c-0.3,0.3-0.5,0.6-0.8,0.9
		C41,43.9,40.9,44,40.8,44c-0.2,0.4-0.4,0.8-0.6,1.1c-0.1,2.4-0.1,4.8-0.1,7.2c0,0.2,0,0.4,0,0.6c0.1,5.4,0.1,10.9,0,16.3
		c0,1.2-0.4,2.3-0.6,3.9c-1.1-0.8-1.9-1.3-2.6-1.8c-4.5-3.6-9.5-3.4-14.5-1.7c-2.9,1-4.1,4.3-2.6,6.9c0.9,1.4,2.4,2.8,4,3.4
		c3.8,1.3,6.1,4,8.3,7.1c1.7,2.4,3.4,4.7,5.2,6.9c2.3,2.6,5.2,4.5,8.7,4.6c5.9,0.2,11.9,0.3,17.8-0.1C71.7,98,75.2,94.7,76,86.7
		C76.5,82.1,76.3,77.3,76.3,72.6z"/>
	<path class="st0" d="M71.7,87.3c-0.3,4.3-2.4,6.4-6.6,6.7c-5.1,0.4-10.3,0-15.5,0.4c-5.1,0.4-8.6-1.8-11.3-5.7
		c-1.4-2.1-2.8-4.1-4.3-6.2c-1.9-2.7-4.2-4.7-7.4-5.8c-1-0.3-1.9-0.9-2.8-1.5c-0.9-0.6-0.9-1.5,0.2-1.8c3.3-0.8,6.7-1.5,9.8,0.9
		c1.1,0.9,2.3,1.8,3.7,2.3c2.5,1,4.7,0,5.7-2.5c0.6-1.5,0.9-3.3,1-4.9c0.1-3.4,0-6.8,0-10.3c0-3.5,0-7.1,0-10.6c0-1.5,0.4-2.6,2-2.7
		c1.4-0.1,2.2,0.9,2.2,2.7c0,4.8,0,9.6,0,14.5c0,1.2,0.1,2.4,1.4,2.9c1.3,0.5,2.1-0.3,2.8-1.2c0.8-0.9,1.6-2,2.9-1.2
		c0.6,0.3,1,1.2,1.2,1.9c0.5,1.7,1.4,2.3,3.1,1.8c1.2-0.3,2.3-0.7,3.5-1c1-0.3,1.7-0.1,1.9,1.3c0.2,2.3,1.6,3.1,3.7,2.4
		c2.2-0.7,3.2,0,3.2,2.3C72.1,77.1,72.1,82.2,71.7,87.3z"/>
</g>
</svg>
