<?xml version="1.0" encoding="utf-8"?>
<!-- Generator: Adobe Illustrator 17.0.0, SVG Export Plug-In . SVG Version: 6.00 Build 0)  -->
<!DOCTYPE svg PUBLIC "-//W3C//DTD SVG 1.1//EN" "http://www.w3.org/Graphics/SVG/1.1/DTD/svg11.dtd">
<svg version="1.1" id="Layer_1" xmlns="http://www.w3.org/2000/svg" xmlns:xlink="http://www.w3.org/1999/xlink" x="0px" y="0px"
	 width="170px" height="170px" viewBox="561.5 215 170 170" enable-background="new 561.5 215 170 170" xml:space="preserve">
<g>
	<defs>
		<circle id="SVGID_1_" cx="646.5" cy="300" r="85"/>
	</defs>
	<clipPath id="SVGID_2_">
		<use xlink:href="#SVGID_1_"  overflow="visible"/>
	</clipPath>
	<g clip-path="url(#SVGID_2_)">
		<path d="M702.898,253.21H584.056c-3.014,0-5.454,2.44-5.454,5.454v82.673c0,3.014,2.44,5.454,5.454,5.454h128.889
			c3.014,0,5.454-2.44,5.454-5.454v-71.19L702.898,253.21z M704.189,261.391l6.889,7.464h-6.889
			C704.189,268.854,704.189,261.391,704.189,261.391z M713.806,341.336c0,0.431-0.431,0.861-0.861,0.861H584.056
			c-0.431,0-0.861-0.431-0.861-0.861v-82.673c0-0.431,0.431-0.861,0.861-0.861h115.541v13.348c0,1.292,1.005,2.296,2.296,2.296
			h12.056v67.889H713.806z"/>
		<path d="M655.103,277.609c-0.431,0-0.718,0.144-1.148,0.144h-59.708c-1.005,0-1.722,0.718-1.722,1.722s0.718,1.722,1.722,1.722
			h31.433c-1.579,0.144-3.158,0.431-4.88,0.574c0,2.583,0,5.023,0,7.607H594.39c-1.005,0-1.722,0.718-1.722,1.722
			s0.718,1.722,1.722,1.722h26.553c0,2.584,0,5.167,0,7.751H594.39c-1.005,0-1.722,0.718-1.722,1.722s0.718,1.722,1.722,1.722
			h26.553c0,2.584,0,5.311,0,7.894H594.39c-1.005,0-1.722,0.718-1.722,1.722c0,1.005,0.718,1.722,1.722,1.722h26.553
			c0,1.435,0,2.727,0,4.162c-4.306-2.44-9.473,0.431-11.626,4.162h-15.071c-1.005,0-1.722,0.718-1.722,1.722
			c0,1.005,0.718,1.722,1.722,1.722h14.066c0,1.005,0.574,1.866,1.579,2.44c3.588,1.866,8.038,0.574,10.478-2.44h51.814
			c-3.014,0.861-5.454,2.44-6.889,5.454c-1.292,2.727-0.144,5.311,2.871,5.885c1.435,0.287,3.014,0.287,4.449,0
			c4.019-0.861,8.038-4.162,7.894-9.616c0-0.574,0-1.148,0-1.722h23.682c1.005,0,1.722-0.718,1.722-1.722s-0.718-1.722-1.722-1.722
			h-23.682c0-2.727,0-5.454,0-8.325h23.826c1.005,0,1.722-0.718,1.722-1.722s-0.718-1.722-1.722-1.722h-23.826
			c0-2.583,0-5.311,0-7.894h23.826c1.005,0,1.722-0.718,1.722-1.722c0-1.005-0.718-1.722-1.722-1.722h-23.826
			c0-1.722,0-3.301,0-5.023c0-0.861,0-1.866,0-2.727h23.682c1.005,0,1.722-0.718,1.722-1.722c0-1.005-0.718-1.722-1.722-1.722
			h-23.682c0-0.718,0-1.435,0-2.153c-0.574,0-1.005,0-1.435,0c0,0.718,0,1.435,0,2.153h-23.969c0-2.727,0-5.454,0-8.181h49.087
			c1.005,0,1.722-0.718,1.722-1.722c0-1.005-0.718-1.722-1.722-1.722L655.103,277.609L655.103,277.609z M622.378,292.68h31.289
			c0,2.583,0,5.167,0,7.751h-31.289C622.378,297.847,622.378,295.264,622.378,292.68z M622.378,303.875h31.289
			c0,2.583,0,5.311,0,7.894h-31.289C622.378,309.186,622.378,306.602,622.378,303.875z M622.378,315.358h23.969
			c-0.718,0.431-1.435,0.861-2.153,1.579c-1.722,1.579-2.871,3.445-2.871,5.885c0,0.287,0,0.574,0.144,0.718h-19.376
			c0.143-0.431,0.143-1.005,0.143-1.579C622.378,319.807,622.378,317.511,622.378,315.358z M677.78,330.859
			c-0.718,0.861-1.435,1.722-2.44,2.44c-2.153,1.579-4.593,2.871-7.464,3.301c-0.287-0.144-0.861-0.287-1.005-0.574
			c-0.143-0.431,0-1.148,0.287-1.435c1.722-2.44,4.162-3.875,6.889-4.88c0.861-0.287,1.722-0.574,2.584-0.718
			c0.431,0,1.292,0.144,1.435,0.431C678.354,329.71,678.067,330.572,677.78,330.859z M679.072,327.988
			c-0.574-0.431-1.292-0.718-1.866-1.005h1.866C679.072,327.414,679.072,327.701,679.072,327.988z M679.072,323.539h-26.696
			c1.579-1.435,2.583-3.588,2.583-5.885c0-0.861,0-1.579,0-2.44h23.969C679.072,318.085,679.072,320.812,679.072,323.539z
			 M679.072,311.913h-23.969c0-2.583,0-5.311,0-7.894h23.969C679.072,306.602,679.072,309.186,679.072,311.913z M679.072,292.68
			c0,2.583,0,5.167,0,7.751h-23.969c0-2.584,0-5.167,0-7.751H679.072z M653.667,289.235h-31.289c0-1.148,0-2.296,0-3.301
			c0-0.431,0-0.718,0-1.292c9.616-1.148,19.089-2.296,28.706-3.445h2.583C653.667,283.925,653.667,286.652,653.667,289.235z"/>
	</g>
</g>
</svg>
