<?xml version="1.0" encoding="utf-8"?>
<!-- Generator: Adobe Illustrator 17.0.0, SVG Export Plug-In . SVG Version: 6.00 Build 0)  -->
<!DOCTYPE svg PUBLIC "-//W3C//DTD SVG 1.1//EN" "http://www.w3.org/Graphics/SVG/1.1/DTD/svg11.dtd">
<svg version="1.1" id="Layer_1" xmlns="http://www.w3.org/2000/svg" xmlns:xlink="http://www.w3.org/1999/xlink" x="0px" y="0px"
	 width="170px" height="170px" viewBox="561.5 215 170 170" enable-background="new 561.5 215 170 170" xml:space="preserve">
<circle fill="none" cx="646.5" cy="300" r="85"/>
<path d="M705.15,275.261h-1.2h-75.3c0.6-1.9,1-4,1.1-6.2c0.3-6-1.4-11.3-6.5-15c-1.1-0.8-2.4-0.6-3.1,0c-1.9,1.9-3.8,3.8-5.1,6.1
	c-2.5,4.7-3.5,9.9-3.3,15.1h-25v1.6h-0.1v53.7h0.1v1.6h13.2c-0.7,0.8-1.3,1.7-1.7,2.9c-1.2,3.9,1,6.4,3.6,8.7c2.9,2.5,6.2,3.5,9.9,2
	c3.9-1.5,6.2-4.4,6.4-8.5c0.1-1.7,0-3.4-0.1-5.1h85.9h1.2h1.2v-56.9L705.15,275.261L705.15,275.261z M618.25,261.061
	c1.4-2.8,3.4-2.9,5.6-0.6c3.2,3.5,3.4,7.6,0.5,11.3c-0.9,1.2-2.1,2.4-3.5,3.5h-6.2C615.15,270.361,615.95,265.561,618.25,261.061z
	 M614.15,278.361h1.6c-0.6,0.3-1.1,0.5-1.7,0.6C614.15,278.761,614.15,278.561,614.15,278.361z M661.55,297.061c0,2,1.4,3.8,3.6,5.1
	h-38.4c-1.5-1.9-3.8-3.3-6.6-4.1c-1.5-0.4-3.1-0.6-4.8-0.9c-0.2-2.1-0.2-4.1-0.4-6.1h52.4
	C663.95,292.061,661.55,294.361,661.55,297.061z M673.05,292.461c2.8,1.2,4.3,4,3.5,6.7c-0.5,1.6-1.7,2.7-3.3,3h-1.6
	c-0.5-0.1-1-0.2-1.5-0.4c-2.8-1.2-4.4-4.4-3.7-7C667.35,291.961,670.25,291.161,673.05,292.461z M625.75,305.261h1.8
	c1.2,3.1,0.8,6.3-0.4,9.5h-0.4C627.35,311.461,627.35,308.361,625.75,305.261z M623.35,302.061c-2.2-2-4.9-3-7.9-3.8
	c4-0.2,7.8,0.6,10.3,3.8H623.35z M603.75,310.261c0.3,1.7,1.1,3.2,2.1,4.4h-6.2c-1.6-3.1-2.1-6.3-1.4-9.5h5.6
	C603.45,306.861,603.45,308.561,603.75,310.261z M614.65,317.861c0.1,0.7,0.1,1.5,0.2,2.2c0,0.5-0.5,1.2-1,1.5
	c-3.1,1.6-7.6,0.9-10.1-1.5c-0.7-0.7-1.3-1.4-1.9-2.1h12.8V317.861z M613.65,305.661c0.2,3,0.5,6,0.7,9.1h-4.5
	c-0.5-1.3-1.1-2.6-1.5-4c-0.8-2.2-0.1-4.3,1.6-5.5h3.6C613.55,305.361,613.65,305.461,613.65,305.661z M612.45,291.061
	c0.2,2.2,0.3,4.3,0.5,6.5c-3.2,0.5-6.1,1.6-7.8,4.6h-5.8c1-2,2.4-3.9,4.3-5.8c2-1.9,4.3-3.6,6.5-5.3L612.45,291.061L612.45,291.061z
	 M591.35,278.361h20c-0.6,2-2,3.4-4,5c-1.8,1.4-3.4,2.9-4.8,4.5h-11.2V278.361z M591.35,291.061h8.6c-2.4,3.3-4,7-4.7,11.1h-3.9
	V291.061L591.35,291.061z M591.35,305.261h3.6c-0.1,1.3,0,2.7,0.1,4.1c0.2,1.9,0.6,3.7,1.2,5.4h-4.9
	C591.35,314.761,591.35,305.261,591.35,305.261z M591.35,328.961v-11.1h6.4c1.6,2.7,4,5,7.2,6.7c3.3,1.7,6.7,2.1,10.4,1.9
	c0,0.8,0,1.7,0.1,2.5H591.35L591.35,328.961z M607.75,338.161c-0.3-2.7-1.4-4.7-3.7-6h2.1
	C608.15,333.261,608.95,335.561,607.75,338.161z M615.25,337.161c-1,5.5-7.6,8.1-11.7,4.7c0.6-0.1,0.9-0.1,1.2-0.2
	c3.1-0.8,4.8-3.2,4.5-6.1c-0.1-1.4-0.7-2.6-1.7-3.5h7.9C615.55,333.861,615.55,335.561,615.25,337.161z M616.55,312.261
	c-0.2-2.3-0.2-4.5-0.3-7h2.7c1.4,0.4,2.6,1.2,3.6,2.4c1.5,1.8,1.3,3.9,0.2,5.7c-0.3,0.5-0.6,1-1,1.4h-4.9
	C616.65,313.861,616.55,313.061,616.55,312.261z M617.15,317.861h2.2c-0.5,0.6-0.9,1.2-1.4,1.8c-0.2-0.1-0.4-0.2-0.6-0.3
	C617.25,318.861,617.15,318.361,617.15,317.861z M617.95,328.961c0-0.5-0.1-1-0.1-1.6c-0.1-1.1,0.1-1.7,1.3-2.3
	c3.5-1.7,6.1-4.1,7.8-7.2h37.5c-1.7,1.2-2.8,2.8-2.8,4.5c0,3.2,3.6,5.9,8.3,6.5C669.75,328.961,617.95,328.961,617.95,328.961z
	 M670.25,327.061c-2.8-1.2-4.4-4.4-3.7-7c0.3-1,0.9-1.7,1.6-2.2h4.9c2.7,1.2,4.2,4,3.5,6.6
	C675.85,327.161,672.95,328.361,670.25,327.061z M704.05,328.961h-30.1c4.7-0.6,8.3-3.3,8.3-6.5c0-1.8-1.1-3.4-2.8-4.5h24.7v11
	H704.05z M704.05,314.761h-75.8c0.4-1.1,0.6-2.3,0.8-3.5c0.3-2.2,0.1-4.2-0.5-6h75.5V314.761z M704.05,302.061h-25.5
	c2.2-1.2,3.6-3,3.6-5.1c0-2.6-2.4-4.9-5.9-6h27.8V302.061L704.05,302.061z M704.05,287.861h-88.3c0.2-0.1,0.5-0.2,0.7-0.3
	c5.2-1.9,8.7-5,10.8-9.1h76.7L704.05,287.861L704.05,287.861z"/>
</svg>
