<?xml version="1.0" encoding="utf-8"?>
<!-- Generator: Adobe Illustrator 19.0.0, SVG Export Plug-In . SVG Version: 6.00 Build 0)  -->
<svg version="1.1" id="Layer_1" xmlns="http://www.w3.org/2000/svg" xmlns:xlink="http://www.w3.org/1999/xlink" x="0px" y="0px"
	 viewBox="143 145 336 308" style="enable-background:new 143 145 336 308;" xml:space="preserve">
<style type="text/css">
	.st0{fill:#F6F6F7;stroke:#181818;stroke-width:1.2399;stroke-miterlimit:10;}
	.st1{fill:#181818;}
	.st2{stroke:#181818;stroke-width:0.4879;stroke-miterlimit:10;}
	.st3{stroke:#181818;stroke-width:0.4993;stroke-miterlimit:10;}
	.st4{fill:#FFFFFF;}
</style>
<g>
	<g>
		<rect x="437.8" y="363.7" class="st0" width="13.4" height="66"/>
		<rect x="424.4" y="363.7" class="st0" width="13.4" height="66"/>
		<rect x="411" y="363.7" class="st0" width="13.4" height="66"/>
		<rect x="397.5" y="363.7" class="st0" width="13.4" height="66"/>
		<rect x="384.1" y="363.7" class="st0" width="13.4" height="66"/>
		<rect x="370.7" y="363.7" class="st0" width="13.4" height="66"/>
		<rect x="357.3" y="363.7" class="st0" width="13.4" height="66"/>
		<rect x="343.9" y="363.7" class="st0" width="13.4" height="66"/>
		<rect x="357.3" y="363.7" class="st0" width="13.4" height="66"/>
		<rect x="343.9" y="363.7" class="st0" width="13.4" height="66"/>
		<rect x="330.5" y="363.7" class="st0" width="13.4" height="66"/>
		<rect x="317.1" y="363.7" class="st0" width="13.4" height="66"/>
		<rect x="303.7" y="363.7" class="st0" width="13.4" height="66"/>
		<rect x="290.3" y="363.7" class="st0" width="13.4" height="66"/>
		<rect x="276.9" y="363.7" class="st0" width="13.4" height="66"/>
		<rect x="263.5" y="363.7" class="st0" width="13.4" height="66"/>
		<rect x="250.1" y="363.7" class="st0" width="13.4" height="66"/>
		<rect x="236.7" y="363.7" class="st0" width="13.4" height="66"/>
		<rect x="223.3" y="363.7" class="st0" width="13.4" height="66"/>
		<rect x="209.9" y="363.7" class="st0" width="13.4" height="66"/>
		<rect x="196.5" y="363.7" class="st0" width="13.4" height="66"/>
		<rect x="183.1" y="363.7" class="st0" width="13.4" height="66"/>
		<rect x="169.7" y="363.7" class="st0" width="13.4" height="66"/>
		<rect x="169.7" y="363.7" class="st0" width="13.4" height="66"/>
		<g>
			<rect x="420.7" y="358.5" class="st1" width="8" height="35"/>
			<rect x="433.9" y="361.5" class="st1" width="8" height="35"/>
			<rect x="407.1" y="361.5" class="st1" width="8" height="35"/>
			<rect x="380.3" y="358.5" class="st1" width="8" height="35"/>
			<rect x="366.7" y="361.5" class="st1" width="8" height="35"/>
			<rect x="326.8" y="361.5" class="st1" width="8" height="35"/>
			<rect x="340" y="358.5" class="st1" width="8" height="35"/>
			<rect x="313.2" y="358.5" class="st1" width="8" height="35"/>
			<rect x="286.3" y="361.5" class="st1" width="8" height="35"/>
			<rect x="272.7" y="361.4" class="st1" width="8" height="35.1"/>
			<rect x="233.2" y="358.6" class="st1" width="8" height="34.9"/>
			<rect x="246.4" y="361.2" class="st1" width="8" height="35.2"/>
			<rect x="219.6" y="361.5" class="st1" width="8" height="34.9"/>
			<rect x="192.7" y="361.5" class="st1" width="8" height="34.9"/>
			<rect x="179.1" y="361.5" class="st1" width="8" height="34.9"/>
		</g>
	</g>
	<path d="M375.9,294.8c-20.9-7.9-39.4-42.6-49.3-66.7c-19.5-47.8-38.6-76.8-93.5-75.5c-70.2,1.6-79.3,63.3-79.3,63.3v205.5
		c0,8.6,12.3,15.5,21.3,15.5h274.5c9.1,0,18.1-6.8,19.5-15.3c5.7-34.5,12.3-116-53.5-119.1C399.1,301.7,386.1,298.6,375.9,294.8
		L375.9,294.8z M451.1,422H172v-57.8h279.2L451.1,422L451.1,422z"/>
	<rect x="343.9" y="419.4" class="st2" width="13.4" height="10.2"/>
	<rect x="317.1" y="419" class="st3" width="13.4" height="10.7"/>
	<rect x="290.3" y="419" class="st3" width="13.4" height="10.7"/>
	<rect x="384.1" y="419" class="st3" width="13.4" height="10.7"/>
	<rect x="236.7" y="419.4" class="st2" width="13.4" height="10.2"/>
	<rect x="209.9" y="419" class="st3" width="13.4" height="10.7"/>
	<g id="XMLID_2_">
		<path id="XMLID_25_" class="st4" d="M225.8,258.8l41.7-6.8v56.4c0,4.7-3.5,8.5-8.8,9.7c-5.9,1.5-11.8-0.9-12.9-5.6
			c-1.2-4.7,2.6-9.4,8.8-11.2c2.6-0.6,5.3-0.6,7.6,0.3v-33.5l-30.6,5.6l-0.6,42.3c0,4.1-3.5,7.9-8.8,9.1c-5.9,1.5-12-1.5-12.6-5.6
			c-1.2-4.4,2.6-9.4,8.5-10.9c2.6-0.6,5.3-0.6,7.3,0.3C225.8,309,225.8,258.8,225.8,258.8z M213.2,281.1v-44.9
			c0,0,9.7-0.6,19.4,14.4c0,0,0-7.6-7.3-13.5c-14.4-10-14.4-12.3-14.4-12.3c-2.6,0.3-2.9,2.4-2.9,2.4v47.3c-2.1-0.6-4.4-0.9-7.1-0.3
			c-5.6,1.5-9.1,5.9-8.2,10.3c0.6,3.8,6.5,6.8,12,5.3C209.6,288.7,213.2,284.9,213.2,281.1L213.2,281.1z M240.2,245.8
			c2.1-0.6,3.2-2.1,3.2-3.5v-18.2c0,0,4.1-0.3,7.9,5.9c0,0,0-3.2-2.9-5.6c-5.9-4.1-5.9-5-5.9-5c-1.2,0-1.2,0.9-1.2,0.9v19.4
			c-0.9-0.3-1.8-0.3-2.9,0c-2.4,0.6-3.8,2.4-3.2,4.1C235.8,245.3,238.1,246.4,240.2,245.8L240.2,245.8z"/>
	</g>
</g>
</svg>
