<?xml version="1.0" encoding="utf-8"?>
<!-- Generator: Adobe Illustrator 17.0.0, SVG Export Plug-In . SVG Version: 6.00 Build 0)  -->
<!DOCTYPE svg PUBLIC "-//W3C//DTD SVG 1.1//EN" "http://www.w3.org/Graphics/SVG/1.1/DTD/svg11.dtd">
<svg version="1.1" id="Layer_1" xmlns="http://www.w3.org/2000/svg" xmlns:xlink="http://www.w3.org/1999/xlink" x="0px" y="0px"
	 width="170px" height="170px" viewBox="561.5 215 170 170" enable-background="new 561.5 215 170 170" xml:space="preserve">
<g>
	<g>
		<defs>
			<circle id="SVGID_1_" cx="646.5" cy="300" r="85"/>
		</defs>
		<clipPath id="SVGID_2_">
			<use xlink:href="#SVGID_1_"  overflow="visible"/>
		</clipPath>
		<circle clip-path="url(#SVGID_2_)" fill="none" cx="646.5" cy="300" r="85"/>
	</g>
	<g>
		<defs>
			<circle id="SVGID_3_" cx="646.5" cy="300" r="85"/>
		</defs>
		<clipPath id="SVGID_4_">
			<use xlink:href="#SVGID_3_"  overflow="visible"/>
		</clipPath>
		<g clip-path="url(#SVGID_4_)">
			<path d="M653.5,262.9c0.5-4.6-0.9-7.9-4.4-9.6c-18.3-8.7-37.3,7.4-37.1,22.3c0.5,38.3,0.2,57,0.2,95.3c0,1.4,0,2.8,0,4.2
				c1.5,0,2.5,0,4,0c0-37.3,0-54.8,0-92c2.1,0.8,3.8,1.6,5.6,2.1C635,288.6,652.1,276.5,653.5,262.9z M638.7,261.6
				c1.7,0,3.2,1.4,3.2,3.2c0,0.5-0.4,0.9-0.9,0.9s-0.9-0.4-0.9-0.9c0-0.7-0.6-1.3-1.3-1.3s-1.3,0.6-1.3,1.3c0,0.5-0.4,0.9-0.9,0.9
				s-0.9-0.4-0.9-0.9C635.5,263,636.9,261.6,638.7,261.6z M628.6,261.6c1.7,0,3.2,1.4,3.2,3.2c0,0.5-0.4,0.9-0.9,0.9
				s-0.9-0.4-0.9-0.9c0-0.7-0.6-1.3-1.3-1.3s-1.3,0.6-1.3,1.3c0,0.5-0.4,0.9-0.9,0.9s-0.9-0.4-0.9-0.9
				C625.4,263,626.9,261.6,628.6,261.6z M641.7,272.9c-1.4,3.2-4.7,5.3-8.3,5.3c-3.7,0-7-2.1-8.4-5.3c-0.2-0.6,0-1.2,0.6-1.4
				c0.1-0.1,0.3-0.1,0.4-0.1c0.4,0,0.8,0.3,1,0.7c1,2.4,3.5,4,6.4,4c2.8,0,5.3-1.6,6.3-4c0.2-0.6,0.9-0.8,1.4-0.6
				C641.7,271.7,642,272.4,641.7,272.9z"/>
			<path d="M681,307.3c0.2-13.4-17.1-28-33.6-20.2c-3.1,1.5-4.4,4.5-4,8.7c1.3,12.3,16.8,23.2,28.7,20.2c1.6-0.4,3.1-1.2,5-1.9
				c0,33.6,0,49.4,0,83.2c1.4,0,2.3,0,3.6,0c0-1.3,0-2.6,0-3.8C680.8,358.9,680.6,341.9,681,307.3z M667.2,293.6c1.6,0,3,1.3,3,3
				c0,0.5-0.4,0.9-0.9,0.9s-0.9-0.4-0.9-0.9c0-0.7-0.6-1.3-1.3-1.3s-1.3,0.6-1.3,1.3c0,0.5-0.4,0.9-0.9,0.9s-0.9-0.4-0.9-0.9
				C664.2,294.9,665.6,293.6,667.2,293.6z M657.7,293.6c1.6,0,3,1.3,3,3c0,0.5-0.4,0.9-0.9,0.9s-0.9-0.4-0.9-0.9
				c0-0.7-0.6-1.3-1.3-1.3c-0.7,0-1.3,0.6-1.3,1.3c0,0.5-0.4,0.9-0.9,0.9s-0.9-0.4-0.9-0.9C654.8,294.9,656.1,293.6,657.7,293.6z
				 M652.8,301.7c0-1.2,1.6-2.6,1.6-2.6c0.2,0.9,0.5,1.5,0.5,1.5c0.4,0.6,0.4,1.2,0.4,1.2c0,1.3-1.3,1.3-1.3,1.3
				C652.8,303.1,652.8,301.7,652.8,301.7z M669.9,308.9c-0.5,0.2-1.1,0-1.3-0.5c-1-2.3-3.3-3.8-5.9-3.8c-2.7,0-5,1.5-6,3.8
				c-0.2,0.4-0.5,0.6-0.9,0.6c-0.1,0-0.3,0-0.4-0.1c-0.5-0.2-0.8-0.8-0.6-1.3c1.3-3,4.4-5,7.9-5c3.4,0,6.5,2,7.8,5
				C670.7,308.1,670.4,308.7,669.9,308.9z"/>
		</g>
	</g>
</g>
</svg>
