<?xml version="1.0" encoding="utf-8"?>
<!-- Generator: Adobe Illustrator 19.0.0, SVG Export Plug-In . SVG Version: 6.00 Build 0)  -->
<svg version="1.1" id="Layer_1" xmlns="http://www.w3.org/2000/svg" xmlns:xlink="http://www.w3.org/1999/xlink" x="0px" y="0px"
	 width="170px" height="170px" viewBox="2 -2 170 170" style="enable-background:new 2 -2 170 170;" xml:space="preserve">
<style type="text/css">
	.st0{fill:none;}
</style>
<g id="XMLID_20_">
	<g id="XMLID_35_">
	</g>
	<g id="XMLID_34_">
	</g>
	<g id="XMLID_33_">
	</g>
	<g id="XMLID_32_">
	</g>
	<g id="XMLID_31_">
	</g>
	<g id="XMLID_30_">
	</g>
	<g id="XMLID_29_">
	</g>
	<g id="XMLID_28_">
	</g>
	<g id="XMLID_27_">
	</g>
	<g id="XMLID_26_">
	</g>
	<g id="XMLID_25_">
	</g>
	<g id="XMLID_24_">
	</g>
	<g id="XMLID_23_">
	</g>
	<g id="XMLID_22_">
	</g>
	<g id="XMLID_21_">
	</g>
</g>
<path id="XMLID_56_" class="st0" d="M-431.8,155.1c0,2.1-1.7,3.8-3.8,3.8h-1.3V179h11.7v-53.6h-6.7L-431.8,155.1L-431.8,155.1z"/>
<path id="XMLID_57_" class="st0" d="M-462,155.1v-29.7h-0.6c-1.5,0-2.7,1.2-2.7,2.7v48.1c0,1.5,1.2,2.7,2.7,2.7h5.7v-20.1h-1.3
	C-460.3,158.9-462,157.2-462,155.1z"/>
<path id="XMLID_58_" class="st0" d="M-414.8,155.1v-29.7h-6.7l0,0V179h11.7v-20.1h-1.3C-413.1,158.9-414.8,157.2-414.8,155.1z"/>
<path id="XMLID_59_" class="st0" d="M-440.2,158.9h-1.3c-2.1,0-3.8-1.7-3.8-3.8v-29.7h-3.3v29.7c0,2.1-1.7,3.8-3.8,3.8l0,0h-1.3
	v18.6h13.4L-440.2,158.9L-440.2,158.9z"/>
<path id="XMLID_60_" class="st0" d="M-398.1,155.1v-29.7h-3.3v29.7c0,2.1-1.7,3.8-3.8,3.8h-1.2V179h13.4v-20.1h-1.2
	C-396.4,158.9-398.1,157.2-398.1,155.1z"/>
<path id="XMLID_61_" class="st0" d="M-384.1,125.4h-0.6v29.7c0,2.1-1.7,3.8-3.8,3.8h-1.3V179h5.7c1.5,0,2.7-1.2,2.7-2.7v-48.1
	C-381.4,126.6-382.6,125.4-384.1,125.4z"/>
<path id="XMLID_38_" class="st0" d="M-462,155.1v-29.7h-0.6c-1.5,0-2.7,1.2-2.7,2.7v48.1c0,1.5,1.2,2.7,2.7,2.7h5.7v-20.1h-1.3
	C-460.3,158.9-462,157.2-462,155.1z"/>
<path id="XMLID_39_" class="st0" d="M-431.8,155.1c0,2.1-1.7,3.8-3.8,3.8h-1.3V179h11.7v-53.6h-6.7L-431.8,155.1L-431.8,155.1z"/>
<path id="XMLID_40_" class="st0" d="M-409.8,158.9h-1.3c-2.1,0-3.8-1.7-3.8-3.8v-29.7h-6.7l0,0v50.4h11.7L-409.8,158.9L-409.8,158.9
	z"/>
<path id="XMLID_41_" class="st0" d="M-384.1,125.4h-0.6v29.7c0,2.1-1.7,3.8-3.8,3.8h-1.3V179h5.7c1.5,0,2.7-1.2,2.7-2.7v-48.1
	C-381.4,126.6-382.6,125.4-384.1,125.4z"/>
<path id="XMLID_42_" class="st0" d="M-398.1,155.1v-29.7h-3.3v29.7c0,2.1-1.7,3.8-3.8,3.8h-1.2V179h13.4v-20.1h-1.2
	C-396.4,158.9-398.1,157.2-398.1,155.1z"/>
<path id="XMLID_78_" class="st0" d="M-462.4,298.5c0,2.1-1.7,3.8-3.8,3.8h-1.3v20.1h11.7v-53.7h-6.7L-462.4,298.5L-462.4,298.5
	L-462.4,298.5z"/>
<path id="XMLID_79_" class="st0" d="M-475.8,298.5v-29.7h-3.3v29.7c0,2.1-1.7,3.8-3.8,3.8l0,0h-1.3v12.6h13.4v-12.7h-1.3
	C-474.2,302.2-475.8,300.5-475.8,298.5z"/>
<path id="XMLID_80_" class="st0" d="M-492.6,298.5v-29.7h-0.6c-1.5,0-2.7,1.2-2.7,2.7v48.1c0,1.5,1.2,2.7,2.7,2.7h5.7v-20.1h-1.3
	C-490.9,302.2-492.6,300.5-492.6,298.5z"/>
<path id="XMLID_81_" class="st0" d="M-415.3,322.3h0.6c1.5,0,2.7-1.2,2.7-2.7v-48.1c0-1.5-1.2-2.7-2.7-2.7h-0.6v29.7V322.3z"/>
<path id="XMLID_82_" class="st0" d="M-432.1,298.5c0,2.1-1.7,3.8-3.8,3.8h-1.2v20.1h8.4v-23.9v-29.7h-3.3v29.7H-432.1z"/>
<path id="XMLID_83_" class="st0" d="M-445.4,298.5v-29.7h-6.7l0,0v45.5h11.7v-12.1h-1.3C-443.7,302.2-445.4,300.5-445.4,298.5z"/>
<path d="M109.8,118.5V111H96.1v7.5H79.4v-7H64v7H49.4c-1.3,0-2.3-1.1-2.3-2.5V40.5c0-1.3,1-2.2,2.3-2.2h75.3c1.1,0,2.3,0.8,2.3,2.2
	V116c0,1.4-1,2.5-2.3,2.5H109.8z M111.1,114h8c2,0,3.7-1.7,3.7-3.7v-1h-0.1V46.2c0-2-1.7-3.7-3.7-3.7h-2.9v39.6
	c0,1.5-1.3,2.8-2.8,2.8h-2.2V114z M80.6,114h13.8V42.4h-8.7v39.7c0,1.5-1.3,2.8-2.8,2.8h-2.3V114z M55.9,42.5c-2,0-4.7,1.7-4.7,3.7
	v64.1c0,2,2.7,3.7,4.7,3.7h6.7V85h-2.3c-1.5,0-2.8-1.3-2.8-2.8V42.5L55.9,42.5L55.9,42.5z M63.9,107h15.5V85h-2.3
	c-1.5,0-2.8-1.3-2.8-2.8V42.5h-5.3v39.6c0,1.5-1.3,2.8-2.8,2.8h-2.3L63.9,107L63.9,107z M95.9,106.5h13.7l0.1-1.5V85h-2.3
	c-1.5,0-2.8-1.3-2.8-2.8V42.5h-8.7V106.5z"/>
</svg>
